<?xml version="1.0" encoding="utf-8"?>
<svg xmlns="http://www.w3.org/2000/svg">
<defs>
<svg id="count" viewBox="0 0 1000 1000" enable-background="new 0 0 1000 1000" xml:space="preserve" xmlns="http://www.w3.org/2000/svg">
<g><g transform="translate(0.000000,511.000000) scale(0.100000,-0.100000)"><path d="M327.4,4928.9c-60.6-38.3-134-118.1-169.1-172.3c-57.4-102.1-60.6-248.9-57.4-4483.2c0-2409.1,0-4464,0-4562.9c3.2-165.9,16-197.8,118.1-309.5c191.5-213.8,453.1-245.7,654.1-76.6c185.1,156.3,188.3,175.5,188.3,1222.1v957.3h335h335v-236.1c0-204.2,9.6-242.5,79.8-319.1c63.8-67,105.3-82.9,229.8-82.9c248.9,3.2,328.7,105.3,328.7,427.6v210.6h335h335v-239.3c0-213.8,9.6-252.1,79.8-319.1c41.5-44.7,108.5-83,150-83c315.9-16,408.4,83,408.4,434v207.4h335h335v-239.3c0-213.8,9.6-252.1,79.8-319.1c124.4-127.6,344.6-118.1,472.2,19.1c76.6,83,86.2,118.1,86.2,315.9v223.4h654.1h654.1v-223.4c0-197.8,9.6-232.9,89.3-319.1c70.2-79.8,111.7-98.9,220.2-102.1c252.1-3.2,360.6,146.8,360.6,494.6v150h973.2h973.2V-3444c0-1059.4,6.4-1104,220.2-1244.4c169.1-114.9,296.7-124.4,472.2-38.3c114.9,57.5,172.3,111.7,226.5,220.2l70.2,140.4V110.6c0,3688.6-6.4,4495.9-44.7,4582.1c-22.3,57.4-95.7,150-159.5,207.4c-102.1,86.2-140.4,102.1-287.2,102.1c-201,0-347.8-86.2-437.1-255.3c-47.9-86.2-60.6-178.7-60.6-405.2V4045h-315.9h-312.7l-19.1,220.2c-9.6,121.3-35.1,248.9-57.4,284c-92.5,150-354.2,178.7-497.8,57.4c-79.8-67-89.3-98.9-98.9-319.1l-12.8-242.5H6291.1h-1305v226.5c0,207.4-6.4,232.9-92.5,319.1c-124.4,124.5-306.3,127.6-446.7,9.6c-92.5-79.8-98.9-92.5-98.9-319.1V4045h-335h-335v226.5c0,207.4-6.4,232.9-92.5,319.1c-73.4,73.4-121.3,92.5-226.6,92.5s-153.2-19.2-226.6-92.5c-86.1-86.2-92.5-111.7-92.5-319.1V4045h-335h-335v226.5c0,207.4-6.4,232.9-92.5,319.1c-73.4,73.4-121.3,92.5-226.6,92.5s-153.2-19.2-226.6-92.5c-86.1-86.2-92.5-111.7-92.5-319.1V4045h-335h-335v312.7c0,252.1-12.8,328.7-63.8,414.8C857.1,4999,541.2,5075.6,327.4,4928.9z M1731.4,3148.3c0-207.4,6.4-232.9,92.5-319.1c73.4-73.4,121.3-92.5,226.6-92.5s153.2,19.1,226.6,92.5c86.1,86.2,92.5,111.7,92.5,319.1v226.6h335h335v-226.6c0-207.4,6.4-232.9,92.5-319.1c73.4-73.4,121.3-92.5,226.6-92.5s153.2,19.1,226.6,92.5c86.1,86.2,92.5,111.7,92.5,319.1v226.6h335h335v-226.6c0-207.4,6.4-232.9,92.5-319.1c73.4-73.4,121.3-92.5,226.6-92.5s153.2,19.1,226.6,92.5c86.1,86.2,92.5,111.7,92.5,319.1v226.6h1305h1305.1l12.8-242.5c9.6-220.2,19.1-252.1,98.9-319.1c143.6-121.2,405.3-92.5,497.8,57.5c22.3,35.1,47.9,162.7,57.4,284l19.1,220.2h312.7h315.9V2242.1V1109.4h-315.9h-312.7l-19.1,232.9c-16,204.2-28.7,239.3-118.1,319.1c-127.6,114.9-309.5,118.1-437.2,9.6c-79.8-67-89.3-98.9-98.9-319.1l-12.8-242.5h-312.7H6974l-16,229.8c-15.9,207.4-28.7,239.3-118.1,319.1c-105.3,95.7-271.2,118-389.3,57.4c-98.9-54.3-156.3-204.2-156.3-414.8v-191.5H4986.1H3677.8v226.5c0,207.4-6.4,232.9-92.5,319.1c-73.4,73.4-121.3,92.5-226.6,92.5s-153.2-19.2-226.6-92.5c-86.1-86.2-92.5-111.7-92.5-319.1v-226.5h-335h-335v226.5c0,207.4-6.4,232.9-92.5,319.1c-73.4,73.4-121.3,92.5-226.6,92.5s-153.2-19.2-226.6-92.5c-86.1-86.2-92.5-111.7-92.5-319.1v-226.5h-335h-335v1132.8v1132.8h335h335V3148.3z M1731.4,219.1c0-191.5,9.6-236.1,83-319.1c70.2-82.9,105.3-98.9,226.6-98.9c114.9,0,159.5,19.1,236.1,92.5c86.1,86.2,92.5,111.7,92.5,319.1v226.6h335h335V203.2c0-210.6,9.6-242.5,83-319.1c124.4-121.3,335-118.1,462.7,9.6c86.1,86.2,92.5,111.7,92.5,319.1v226.6h1305.1h1305.1l12.8-242.5c9.6-220.2,19.1-252.1,98.9-319.1c105.3-89.3,319.1-105.3,427.6-28.7c82.9,57.4,137.2,229.7,137.2,440.3v150h319.1h319.1V212.7c0-207.4,6.4-232.9,92.5-319.1c76.6-73.4,121.3-92.5,232.9-92.5c76.6,0,169.1,22.3,207.4,47.9c83,57.4,137.2,229.7,137.2,440.3v150h319.1h319.1V-709.4v-1148.7h-970H6974l-16,245.7c-15.9,226.5-25.5,252.1-118.1,335c-108.5,95.7-232.9,114.9-370.1,51c-121.3-54.3-175.5-185.1-175.5-424.4v-207.4l-644.6,6.4l-647.7,9.6l-19.1,248.9c-22.3,315.9-79.8,389.3-315.9,389.3c-236.1,0-299.9-76.6-319.1-392.5l-16-245.7h-319.1h-319.1l-16,245.7c-19.2,315.9-83,392.5-319.1,392.5c-236.1,0-299.9-76.6-319.1-392.5l-16-245.7h-319.1h-319.1l-16,245.7c-19.2,315.9-83,392.5-319.1,392.5s-299.9-76.6-319.1-392.5l-16-245.7h-319.1h-319.1l-9.6,1142.3l-6.4,1139.2h335h335V219.1z"/></g></g>
</svg>
<svg id="avg" viewBox="0 0 1000 1000" enable-background="new 0 0 1000 1000" xml:space="preserve">
<g><path d="M970.7,656.9L798.7,326.3C807,316.1,812,303,812,288.9c0-32.7-26.5-59.2-59.2-59.2c-32.7,0-59.2,26.5-59.2,59.2c0,14.6,5.3,27.9,14,38.3L529.4,714L297.7,482.3c8-10.1,12.8-22.9,12.8-36.8c0-32.7-26.5-59.2-59.2-59.2c-32.7,0-59.2,26.5-59.2,59.2c0,13.9,4.8,26.6,12.8,36.7L10,739.9l26.1,19.8l195.3-258.3c6.2,2.2,12.9,3.4,19.8,3.4c6.8,0,13.2-1.1,19.3-3.2l244.3,244.3l-0.1,0.2l1.1,0.9l23.6,23.6l1.9-4.2l0.1,0l193.8-420.8c5.5,1.7,11.4,2.6,17.5,2.6c6.5,0,12.8-1.1,18.7-3l170,327L970.7,656.9z"/><path d="M990,522.8h-33.4v-10.2H990V522.8z M920.3,522.8h-36.4v-10.2h36.4V522.8z M847.5,522.8h-36.4v-10.2h36.4V522.8z M774.7,522.8h-36.4v-10.2h36.4V522.8z M701.9,522.8h-36.4v-10.2h36.4V522.8z M629.1,522.8h-36.4v-10.2h36.4V522.8z M556.4,522.8H520v-10.2h36.4V522.8z M483.6,522.8h-36.4v-10.2h36.4V522.8z M410.8,522.8h-36.4v-10.2h36.4V522.8z M338,522.8h-36.4v-10.2H338V522.8z M265.3,522.8h-36.4v-10.2h36.4V522.8z M192.5,522.8h-36.4v-10.2h36.4V522.8z M119.7,522.8H83.3v-10.2h36.4L119.7,522.8L119.7,522.8z M46.9,522.8H10.5v-10.2h36.4L46.9,522.8L46.9,522.8z"/></g>
</svg>
<svg id="sum" viewBox="0 0 1000 1000" enable-background="new 0 0 1000 1000" xml:space="preserve">
<g><g transform="translate(0.000000,58.000000) scale(0.100000,-0.100000)"><path d="M1451.7,243.5c0-135.2,642-1250.3,1436.2-2450L4341-4420L2887.9-6565.9c-794.2-1182.8-1436.2-2297.9-1436.2-2450c0-287.3,270.4-304.1,3548.3-304.1h3548.3v1148.9L8531.4-7039L8125.9-7512c-405.6-456.3-422.4-456.3-2534.5-456.3c-1165.8,0-2112.1,33.8-2112.1,84.5c0,33.8,608.3,963.1,1351.7,2044.4c844.8,1233.6,1301.1,2044.6,1199.6,2162.8c-67.5,101.4-642.1,895.6-1267.2,1757.2L3648.3-364.8h1808H7281l625.2-709.7l625.2-726.5l16.8,1148.9V480H5000C2009.3,480,1451.7,446.2,1451.7,243.5z"/></g></g>
</svg>
</defs>
</svg>