<?xml version="1.0" encoding="UTF-8"?>
<svg width="1261px" height="519px" viewBox="0 0 146.6 73.5" version="1.1" xmlns="http://www.w3.org/2000/svg" xmlns:xlink="http://www.w3.org/1999/xlink">
  <rect x="8.7" y="0.5" fill="#00d64c" width="13.9" height="12.1"></rect>
  <rect x="60" y="37.7" fill="#00d64c" width="13.9" height="12.1"></rect>
  <rect x="111.9" y="0.5" fill="#00d64c" width="13.9" height="12.1"></rect>
  <path fill="#001b69"
        d="M38.3,20.3c3.7,1.6,6.7,4.2,9.1,7.8c2.1,3.1,3.5,6.7,4.2,10.9c0.4,2.4,0.5,5.9,0.5,10.4H13.8	c0.2,5.3,2,9,5.5,11.1c2.1,1.3,4.6,2,7.6,2c3.1,0,5.7-0.8,7.6-2.4c1.1-0.9,2-2.1,2.8-3.6h14c-0.4,3.1-2.1,6.3-5.1,9.5	c-4.7,5.1-11.3,7.7-19.7,7.7c-7,0-13.1-2.2-18.5-6.5S0,55.7,0,46c0-9.1,2.4-16.1,7.2-20.9c4.8-4.9,11.1-7.3,18.8-7.3	C30.6,17.8,34.7,18.6,38.3,20.3z M17.8,32.1c-1.9,2-3.2,4.7-3.7,8.1h23.6c-0.2-3.6-1.5-6.4-3.7-8.3s-4.9-2.8-8.1-2.8	C22.5,29.1,19.8,30.1,17.8,32.1z"></path>
  <path fill="#001b69"
        d="M101.1,0.1c0.7,0,1.7,0.1,4.6,0.2v11c-2.5-0.1-3.7,0-5.6-0.1c-1.8,0-3.1,0.4-3.8,1.2c-0.7,0.9-1,1.8-1,2.8	c0,1,0,2.5,0,4.4h9.7v9.7h-9.7v42.3H81.7V29.4h-8.8v-9.7h8.6v-3.4c0-5.6,0.9-9.5,2.8-11.6c2-3.1,6.8-4.7,14.4-4.7	C99.6,0,100.4,0,101.1,0.1z"></path>
  <path fill="#001b69" d="M111.9,19.2h13.9v52.5h-13.9V19.2z"></path>
  <path fill="#001b69" d="M146.6,71.6l-13.7,0.1v-71l13.7-0.1V71.6z"></path>
</svg>

